<?xml version="1.0" encoding="UTF-8"?>
<svg width="32" height="32" viewBox="0 0 32 32" xmlns="http://www.w3.org/2000/svg">
  <!-- Fond avec gradient vert -->
  <defs>
    <linearGradient id="bgGradient" x1="0%" y1="0%" x2="100%" y2="100%">
      <stop offset="0%" style="stop-color:#10b981;stop-opacity:1" />
      <stop offset="100%" style="stop-color:#059669;stop-opacity:1" />
    </linearGradient>
  </defs>
  
  <!-- Container -->
  <rect width="32" height="32" rx="6" fill="url(#bgGradient)"/>
  
  <!-- Icône Building2 simplifiée -->
  <g transform="translate(8, 8)">
    <!-- Structure principale du Building2 de Lucide -->
    <path d="M3 11V2a1 1 0 0 1 1-1h4a1 1 0 0 1 1 2v9" stroke="white" stroke-width="1" fill="none" stroke-linecap="round" stroke-linejoin="round"/>
    <path d="M3 6h6" stroke="white" stroke-width="1" fill="none" stroke-linecap="round" stroke-linejoin="round"/>
    <path d="M9 4.5h2a1 1 0 0 1 1 1v5.5" stroke="white" stroke-width="1" fill="none" stroke-linecap="round" stroke-linejoin="round"/>
    <path d="M1 11h10" stroke="white" stroke-width="1" fill="none" stroke-linecap="round" stroke-linejoin="round"/>
    <path d="M5 3h2" stroke="white" stroke-width="1" fill="none" stroke-linecap="round" stroke-linejoin="round"/>
    <path d="M5 5h2" stroke="white" stroke-width="1" fill="none" stroke-linecap="round" stroke-linejoin="round"/>
    <path d="M5 7h2" stroke="white" stroke-width="1" fill="none" stroke-linecap="round" stroke-linejoin="round"/>
    <path d="M5 9h2" stroke="white" stroke-width="1" fill="none" stroke-linecap="round" stroke-linejoin="round"/>
    <path d="M9 6.5h1" stroke="white" stroke-width="1" fill="none" stroke-linecap="round" stroke-linejoin="round"/>
    <path d="M9 8.5h1" stroke="white" stroke-width="1" fill="none" stroke-linecap="round" stroke-linejoin="round"/>
  </g>
</svg> 