<?xml version="1.0" encoding="UTF-8"?>
<svg width="400" height="120" viewBox="0 0 400 120" xmlns="http://www.w3.org/2000/svg">
  <!-- Fond avec gradient vert -->
  <defs>
    <linearGradient id="bgGradient" x1="0%" y1="0%" x2="100%" y2="100%">
      <stop offset="0%" style="stop-color:#10b981;stop-opacity:1" />
      <stop offset="100%" style="stop-color:#059669;stop-opacity:1" />
    </linearGradient>
    <linearGradient id="textGradient" x1="0%" y1="0%" x2="100%" y2="0%">
      <stop offset="0%" style="stop-color:#10b981;stop-opacity:1" />
      <stop offset="100%" style="stop-color:#059669;stop-opacity:1" />
    </linearGradient>
  </defs>
  
  <!-- Container du logo -->
  <rect x="20" y="20" width="80" height="80" rx="16" fill="url(#bgGradient)" stroke="rgba(255,255,255,0.2)" stroke-width="2"/>
  
  <!-- Icône Building2 (reproduction exacte de Lucide) -->
  <g transform="translate(44, 44)">
    <!-- Structure principale du Building2 de Lucide -->
    <path d="M6 22V4a2 2 0 0 1 2-2h8a2 2 0 0 1 2 2v18" stroke="white" stroke-width="2" fill="none" stroke-linecap="round" stroke-linejoin="round"/>
    <path d="M6 12h12" stroke="white" stroke-width="2" fill="none" stroke-linecap="round" stroke-linejoin="round"/>
    <path d="M18 9h4a2 2 0 0 1 2 2v11" stroke="white" stroke-width="2" fill="none" stroke-linecap="round" stroke-linejoin="round"/>
    <path d="M2 22h20" stroke="white" stroke-width="2" fill="none" stroke-linecap="round" stroke-linejoin="round"/>
    <path d="M10 6h4" stroke="white" stroke-width="2" fill="none" stroke-linecap="round" stroke-linejoin="round"/>
    <path d="M10 10h4" stroke="white" stroke-width="2" fill="none" stroke-linecap="round" stroke-linejoin="round"/>
    <path d="M10 14h4" stroke="white" stroke-width="2" fill="none" stroke-linecap="round" stroke-linejoin="round"/>
    <path d="M10 18h4" stroke="white" stroke-width="2" fill="none" stroke-linecap="round" stroke-linejoin="round"/>
    <path d="M18 13h2" stroke="white" stroke-width="2" fill="none" stroke-linecap="round" stroke-linejoin="round"/>
    <path d="M18 17h2" stroke="white" stroke-width="2" fill="none" stroke-linecap="round" stroke-linejoin="round"/>
  </g>
  
  <!-- Texte ChantierDoc -->
  <text x="120" y="50" font-family="system-ui, -apple-system, sans-serif" font-size="28" font-weight="bold" fill="url(#textGradient)">ChantierDoc</text>
  
  <!-- Sous-titre -->
  <text x="120" y="75" font-family="system-ui, -apple-system, sans-serif" font-size="14" fill="#64748b">Gestion documentaire IA pour le BTP</text>
</svg> 